HIERARCHY
ROOT Hips
{
    OFFSET   0.000000   0.000000   0.000000
    CHANNELS 6 Xposition Yposition Zposition Zrotation Xrotation Yrotation
    JOINT Chest
    {
        OFFSET   0.000000   8.007230   0.000000
        CHANNELS 3 Zrotation Xrotation Yrotation
        JOINT Chest2
        {
            OFFSET   0.000000  22.077100   0.000000
            CHANNELS 3 Zrotation Xrotation Yrotation
            JOINT Neck
            {
                OFFSET   0.000000  23.255100   0.000000
                CHANNELS 3 Zrotation Xrotation Yrotation
                JOINT Head
                {
                    OFFSET   0.000000  14.370100   1.956600
                    CHANNELS 3 Zrotation Xrotation Yrotation
                    End Site
                    {
                        OFFSET   0.000000  19.566000   0.000000
                    }
                }
            }
            JOINT LeftCollar
            {
                OFFSET   3.911900  19.017000  -0.467063
                CHANNELS 3 Zrotation Xrotation Yrotation
                JOINT LeftShoulder
                {
                    OFFSET  10.383700   0.000000   0.000000
                    CHANNELS 3 Zrotation Xrotation Yrotation
                    JOINT LeftElbow
                    {
                        OFFSET  26.662100   0.001193   0.000980
                        CHANNELS 3 Zrotation Xrotation Yrotation
                        JOINT LeftWrist
                        {
                            OFFSET  28.869000  -0.000059  -0.000082
                            CHANNELS 3 Zrotation Xrotation Yrotation
                            JOINT LeftFinger0
                            {
                                OFFSET   2.044650  -2.323450   3.252850
                                CHANNELS 3 Zrotation Xrotation Yrotation
                                JOINT LeftFinger01
                                {
                                    OFFSET   3.088130   0.000000   0.000000
                                    CHANNELS 3 Zrotation Xrotation Yrotation
                                    JOINT LeftFinger02
                                    {
                                        OFFSET   2.639460   0.000000   0.000000
                                        CHANNELS 3 Zrotation Xrotation Yrotation
                                        End Site
                                        {
                                            OFFSET   2.582190   0.000000   0.000000
                                        }
                                    }
                                }
                            }
                            JOINT LeftFinger1
                            {
                                OFFSET   8.364480   0.000000   3.252850
                                CHANNELS 3 Zrotation Xrotation Yrotation
                                JOINT LeftFinger11
                                {
                                    OFFSET   4.646930   0.000000   0.000000
                                    CHANNELS 3 Zrotation Xrotation Yrotation
                                    JOINT LeftFinger12
                                    {
                                        OFFSET   2.323470   0.000000   0.000000
                                        CHANNELS 3 Zrotation Xrotation Yrotation
                                        End Site
                                        {
                                            OFFSET   2.273050   0.000000   0.000000
                                        }
                                    }
                                }
                            }
                            JOINT LeftFinger2
                            {
                                OFFSET   8.364490   0.000016   1.078090
                                CHANNELS 3 Zrotation Xrotation Yrotation
                                JOINT LeftFinger21
                                {
                                    OFFSET   5.111610   0.000000   0.000000
                                    CHANNELS 3 Zrotation Xrotation Yrotation
                                    JOINT LeftFinger22
                                    {
                                        OFFSET   2.788150   0.000016   0.000000
                                        CHANNELS 3 Zrotation Xrotation Yrotation
                                        End Site
                                        {
                                            OFFSET   2.727660   0.000000   0.000000
                                        }
                                    }
                                }
                            }
                            JOINT LeftFinger3
                            {
                                OFFSET   7.899780   0.000015  -1.078090
                                CHANNELS 3 Zrotation Xrotation Yrotation
                                JOINT LeftFinger31
                                {
                                    OFFSET   4.646930   0.000000   0.000000
                                    CHANNELS 3 Zrotation Xrotation Yrotation
                                    JOINT LeftFinger32
                                    {
                                        OFFSET   2.323470   0.000000   0.000000
                                        CHANNELS 3 Zrotation Xrotation Yrotation
                                        End Site
                                        {
                                            OFFSET   2.273050   0.000000   0.000000
                                        }
                                    }
                                }
                            }
                            JOINT LeftFinger4
                            {
                                OFFSET   7.435090   0.000000  -3.252850
                                CHANNELS 3 Zrotation Xrotation Yrotation
                                JOINT LeftFinger41
                                {
                                    OFFSET   3.717550   0.000000   0.000000
                                    CHANNELS 3 Zrotation Xrotation Yrotation
                                    JOINT LeftFinger42
                                    {
                                        OFFSET   1.858770   0.000000   0.000000
                                        CHANNELS 3 Zrotation Xrotation Yrotation
                                        End Site
                                        {
                                            OFFSET   1.818440   0.000000   0.000000
                                        }
                                    }
                                }
                            }
                        }
                    }
                }
            }
            JOINT RightCollar
            {
                OFFSET  -3.911910  19.017000  -0.467062
                CHANNELS 3 Zrotation Xrotation Yrotation
                JOINT RightShoulder
                {
                    OFFSET -10.383700   0.000014   0.000000
                    CHANNELS 3 Zrotation Xrotation Yrotation
                    JOINT RightElbow
                    {
                        OFFSET -26.662100   0.001225   0.001091
                        CHANNELS 3 Zrotation Xrotation Yrotation
                        JOINT RightWrist
                        {
                            OFFSET -28.869000  -0.000020  -0.000085
                            CHANNELS 3 Zrotation Xrotation Yrotation
                            JOINT RightFinger0
                            {
                                OFFSET  -2.044650  -2.323490   3.252850
                                CHANNELS 3 Zrotation Xrotation Yrotation
                                JOINT RightFinger01
                                {
                                    OFFSET  -3.088130   0.000000   0.000000
                                    CHANNELS 3 Zrotation Xrotation Yrotation
                                    JOINT RightFinger02
                                    {
                                        OFFSET  -2.639460   0.000000   0.000000
                                        CHANNELS 3 Zrotation Xrotation Yrotation
                                        End Site
                                        {
                                            OFFSET  -2.582190   0.000000   0.000000
                                        }
                                    }
                                }
                            }
                            JOINT RightFinger1
                            {
                                OFFSET  -8.364480   0.000000   3.252850
                                CHANNELS 3 Zrotation Xrotation Yrotation
                                JOINT RightFinger11
                                {
                                    OFFSET  -4.646930   0.000000   0.000000
                                    CHANNELS 3 Zrotation Xrotation Yrotation
                                    JOINT RightFinger12
                                    {
                                        OFFSET  -2.323470   0.000000   0.000000
                                        CHANNELS 3 Zrotation Xrotation Yrotation
                                        End Site
                                        {
                                            OFFSET  -2.273050   0.000000   0.000000
                                        }
                                    }
                                }
                            }
                            JOINT RightFinger2
                            {
                                OFFSET  -8.364480   0.000000   1.078090
                                CHANNELS 3 Zrotation Xrotation Yrotation
                                JOINT RightFinger21
                                {
                                    OFFSET  -5.111620   0.000000   0.000000
                                    CHANNELS 3 Zrotation Xrotation Yrotation
                                    JOINT RightFinger22
                                    {
                                        OFFSET  -2.788160   0.000000   0.000000
                                        CHANNELS 3 Zrotation Xrotation Yrotation
                                        End Site
                                        {
                                            OFFSET  -2.727660   0.000000   0.000000
                                        }
                                    }
                                }
                            }
                            JOINT RightFinger3
                            {
                                OFFSET  -7.899780   0.000000  -1.078090
                                CHANNELS 3 Zrotation Xrotation Yrotation
                                JOINT RightFinger31
                                {
                                    OFFSET  -4.646930   0.000000   0.000000
                                    CHANNELS 3 Zrotation Xrotation Yrotation
                                    JOINT RightFinger32
                                    {
                                        OFFSET  -2.323470   0.000000   0.000000
                                        CHANNELS 3 Zrotation Xrotation Yrotation
                                        End Site
                                        {
                                            OFFSET  -2.273050   0.000000   0.000000
                                        }
                                    }
                                }
                            }
                            JOINT RightFinger4
                            {
                                OFFSET  -7.435090   0.000000  -3.252850
                                CHANNELS 3 Zrotation Xrotation Yrotation
                                JOINT RightFinger41
                                {
                                    OFFSET  -3.717550   0.000000   0.000000
                                    CHANNELS 3 Zrotation Xrotation Yrotation
                                    JOINT RightFinger42
                                    {
                                        OFFSET  -1.858760   0.000000   0.000000
                                        CHANNELS 3 Zrotation Xrotation Yrotation
                                        End Site
                                        {
                                            OFFSET  -1.818440   0.000000   0.000000
                                        }
                                    }
                                }
                            }
                        }
                    }
                }
            }
        }
    }
    JOINT LeftHip
    {
        OFFSET   9.783030   0.000000   0.000000
        CHANNELS 3 Zrotation Xrotation Yrotation
        JOINT LeftKnee
        {
            OFFSET   0.000063 -41.789100   0.000608
            CHANNELS 3 Zrotation Xrotation Yrotation
            JOINT LeftAnkle
            {
                OFFSET   0.000048 -41.133200  -0.000184
                CHANNELS 3 Zrotation Xrotation Yrotation
                JOINT LeftToe
                {
                    OFFSET   0.000000  -6.358960  14.674500
                    CHANNELS 3 Zrotation Xrotation Yrotation
                    End Site
                    {
                        OFFSET   0.000000   0.000000   3.913200
                    }
                }
            }
        }
    }
    JOINT RightHip
    {
        OFFSET  -9.783030   0.000000   0.000000
        CHANNELS 3 Zrotation Xrotation Yrotation
        JOINT RightKnee
        {
            OFFSET   0.000071 -41.789100   0.001239
            CHANNELS 3 Zrotation Xrotation Yrotation
            JOINT RightAnkle
            {
                OFFSET   0.000037 -41.133200  -0.000166
                CHANNELS 3 Zrotation Xrotation Yrotation
                JOINT RightToe
                {
                    OFFSET   0.000000  -6.358960  14.674500
                    CHANNELS 3 Zrotation Xrotation Yrotation
                    End Site
                    {
                        OFFSET   0.000000   0.000000   3.913200
                    }
                }
            }
        }
    }
}
MOTION
Frames: 6
Frame Time:   0.016667
 -5.786690  88.652200   2.247430  -3.967760 -21.455800  -1.761180   2.005650  11.124100   0.585498   4.009930  22.262000   0.787838   2.356040  -2.449760   0.101191   3.889960  -4.942520   0.878190  -7.999070  -6.793240  -3.509740 -52.895400  12.733000 -57.344200  34.859900  -7.106000 -65.437900  60.381600  29.777100 -29.423700  29.934400  50.962000 -72.241400 -65.043200  -0.007792   0.000906 -36.658800  -0.005697   0.004086 -73.032000   5.526940  -1.683290 -59.819800   0.000306  -0.000258 -44.864800  -0.000343   0.000397 -17.969700   1.787000  -5.494040 -18.056300   0.006119   0.001034 -12.025500  -0.004557   0.005273  -4.354480  -0.402467   5.269740  -4.373040  -0.001140  -0.000923  -2.912470   0.009832  -0.000245  -5.466560  -2.452190  24.078100  -8.985000  -0.002115  -0.003216  -5.984000  -0.001324  -0.002191  10.700100  -3.329260  11.821700  42.964500   5.429890  52.290600 -40.740000 -13.391400  54.801200 -67.742300   6.575850  38.612800 -22.910500  56.147300  56.714400  80.621500  -0.002996   0.004407  47.033900   0.001651   0.005314  75.955300   3.459570   0.868677  62.165700   0.002906   0.002082  46.624200   0.007301  -0.001634  24.485600   1.480350   3.245740  24.524300   0.010946  -0.000933  16.333200  -0.001712  -0.000747  12.329200  -1.014640  -4.626450  12.370300  -0.002815  -0.010837   8.238620   0.004577  -0.008756  16.922800  -7.615560 -23.527400  27.780100  -0.013037  -0.000000  18.501500  -0.002280  -0.000073   6.291150  16.033400   1.265990   4.393500  18.057300   2.228230  -6.762030 -13.322400  -1.325910  -0.000000   0.000000  -0.000000   9.238330  23.474200  -7.044150   0.335926   2.886230  -4.133960  -3.789520  -6.938460   0.470777   0.000000   0.000000   0.000000
 -5.793700  88.652100   2.299610  -3.943970 -21.411700  -1.762560   1.997110  11.128000   0.575340   3.994510  22.269400   0.768549   2.356390  -2.523330   0.104262   3.890440  -5.090960   0.877720  -7.993730  -6.803460  -3.489190 -52.979100  12.747300 -57.298200  34.896300  -7.067930 -65.361800  60.310100  29.795000 -29.340900  29.846800  50.912200 -72.141800 -65.157300  -0.008292   0.000921 -36.734800  -0.005756   0.004326 -73.092500   5.423250  -1.645880 -59.866500   0.000261  -0.000315 -44.899800  -0.000357   0.000434 -17.965600   1.753500  -5.389590 -18.047800   0.006334   0.001174 -12.019900  -0.004614   0.005176  -4.311430  -0.399914   5.289310  -4.330040  -0.001085  -0.000853  -2.883830   0.009559  -0.000214  -5.498340  -2.465040  24.065600  -9.037150  -0.002136  -0.003325  -6.018740  -0.001319  -0.002274  10.708300  -3.344000  11.833500  42.933400   5.451450  52.275100 -40.749300 -13.394100  54.749500 -67.694100   6.543580  38.447900 -22.839500  56.022400  56.686200  80.634400  -0.003163   0.004386  47.042500   0.001564   0.005297  75.966200   3.380720   0.843851  62.174600   0.003156   0.001955  46.630900   0.007471  -0.001695  24.548900   1.449620   3.168780  24.589000   0.011216  -0.001047  16.376300  -0.001784  -0.000854  12.374500  -1.023760  -4.658550  12.416200  -0.002827  -0.010701   8.269170   0.004333  -0.008740  16.919000  -7.642110 -23.616900  27.779100  -0.013326   0.000000  18.500900  -0.002294   0.000000   6.266970  16.031800   1.291270   4.394730  18.042500   2.229530  -6.768360 -13.332100  -1.335080  -0.000000   0.000000  -0.000000   9.212870  23.474200  -7.036830   0.339271   2.871760  -4.113060  -3.786230  -6.958870   0.459813  -0.000000   0.000000  -0.000000
 -5.796590  88.652000   2.350260  -3.925960 -21.368500  -1.763530   1.991140  11.133100   0.561748   3.985110  22.279100   0.741615   2.353340  -2.593770   0.106130   3.886790  -5.232950   0.885765  -7.982590  -6.801290  -3.451460 -53.067800  12.771300 -57.235500  34.950100  -7.013820 -65.307200  60.248100  29.838700 -29.212100  29.707600  50.929300 -72.005700 -65.495700  -0.008760   0.000917 -36.960200  -0.005805   0.004562 -73.223800   5.272130  -1.587210 -59.969800   0.000212  -0.000369 -44.977300  -0.000357   0.000469 -18.031000   1.710500  -5.233790 -18.108000   0.006550   0.001311 -12.060000  -0.004672   0.005093  -4.389680  -0.408801   5.286090  -4.408800  -0.001029  -0.000768  -2.936270   0.009287  -0.000159  -5.588350  -2.488600  23.922800  -9.175760  -0.002176  -0.003453  -6.111060  -0.001315  -0.002349  10.713700  -3.342440  11.849300  42.918200   5.453980  52.252500 -40.739100 -13.373800  54.711200 -67.623300   6.519580  38.206200 -22.819500  55.949700  56.714600  80.648000  -0.003334   0.004370  47.051600   0.001483   0.005279  76.062200   3.381090   0.830361  62.253600   0.003404   0.001838  46.690200   0.007653  -0.001755  24.570800   1.450230   3.165520  24.636100   0.011481  -0.001154  16.407700  -0.001859  -0.000972  12.411100  -1.023620  -4.648670  12.452700  -0.002840  -0.010559   8.293510   0.004100  -0.008719  16.945300  -7.638490 -23.578300  27.803700  -0.013641   0.005397  18.517300  -0.002308   0.004093   6.248330  16.018800   1.314360   4.396190  18.044900   2.227520  -6.770360 -13.347000  -1.340120   0.000000   0.000000   0.000000   9.190310  23.474900  -7.023110   0.347514   2.855180  -4.107000  -3.781760  -6.977570   0.460521   0.000000   0.000000   0.000000
 -5.797000  88.651800   2.399470  -3.913150 -21.327200  -1.768100   1.986800  11.139800   0.545285   3.979660  22.291800   0.708374   2.346880  -2.659230   0.107289   3.879050  -5.364990   0.911410  -7.968250  -6.799190  -3.404310 -53.152500  12.805200 -57.143600  35.015400  -6.926020 -65.256100  60.191000  29.908900 -29.066800  29.576500  51.024100 -71.868800 -65.971900  -0.009188   0.000906 -37.277300  -0.005854   0.004799 -73.377600   5.097230  -1.519700 -60.091200   0.000170  -0.000426 -45.068400  -0.000353   0.000511 -18.208600   1.666970  -5.051550 -18.281800   0.006768   0.001450 -12.175700  -0.004732   0.005023  -4.642340  -0.428567   5.263520  -4.662620  -0.000971  -0.000673  -3.105300   0.009011  -0.000100  -5.799980  -2.544610  23.606500  -9.501210  -0.002225  -0.003591  -6.327800  -0.001314  -0.002432  10.720600  -3.336390  11.871400  42.888800   5.455600  52.225700 -40.693800 -13.300900  54.616200 -67.518000   6.520620  37.920800 -22.759600  55.897800  56.769300  80.668800  -0.003508   0.004353  47.065500   0.001399   0.005255  76.255600   3.383610   0.825414  62.410900   0.003656   0.001730  46.808200   0.007842  -0.001815  24.628900   1.454500   3.165060  24.723400   0.011733  -0.001260  16.465800  -0.001941  -0.001088  12.548700  -1.022660  -4.579510  12.590300  -0.002848  -0.010411   8.385160   0.003874  -0.008690  17.069700  -7.612960 -23.308300  27.975900  -0.013914   0.014323  18.632000  -0.002318   0.010743   6.231820  16.000500   1.335400   4.397970  18.051700   2.225550  -6.771240 -13.364600  -1.341900   0.000000   0.000000   0.000000   9.169030  23.476200  -7.008390   0.358684   2.835570  -4.106080  -3.777250  -6.992670   0.465363   0.000000   0.000000  -0.000000
 -5.795130  88.651600   2.447480  -3.904990 -21.290200  -1.778840   1.983360  11.149600   0.526294   3.976640  22.311300   0.669637   2.339870  -2.717700   0.107886   3.868550  -5.483230   0.953241  -7.953390  -6.801090  -3.353960 -53.220400  12.845800 -57.013900  35.078300  -6.774380 -65.201200  60.207200  30.019000 -28.936100  29.497900  51.235400 -71.815500 -66.471500  -0.009561   0.000885 -37.610000  -0.005915   0.005040 -73.500700   4.981390  -1.473190 -60.189300   0.000143  -0.000497 -45.142000  -0.000345   0.000573 -18.505300   1.651210  -4.924980 -18.569000   0.006990   0.001521 -12.367000  -0.004797   0.004966  -5.080830  -0.454397   5.096860  -5.101770  -0.000939  -0.000575  -3.397770   0.008725  -0.000055  -6.178380  -2.652370  23.132900 -10.084500  -0.002251  -0.003662  -6.716250  -0.001317  -0.002483  10.733700  -3.325860  11.898400  42.847900   5.440620  52.199900 -40.588200 -13.144200  54.415100 -67.396200   6.551720  37.641400 -22.788400  55.960800  56.981500  80.702200  -0.003682   0.004336  47.087700   0.001305   0.005216  76.552400   3.450800   0.825496  62.654100   0.003920   0.001633  46.990600   0.008038  -0.001874  25.045900   1.504390   3.214920  24.813300   0.011962  -0.001314  16.525700  -0.002034  -0.001139  12.965900  -0.975848  -4.208640  13.002900  -0.002847  -0.010262   8.659980   0.003650  -0.008646  17.563600  -7.470770 -22.251500  28.575600  -0.013996   0.019934  19.031300  -0.002321   0.015074   6.215010  15.988700   1.353060   4.398310  18.063200   2.229910  -6.771440 -13.382000  -1.341500  -0.000000   0.000000   0.000000   9.149180  23.483500  -6.998910   0.373415   2.810810  -4.122600  -3.771930  -7.003230   0.498673  -0.000000   0.000000  -0.000000
 -5.787640  88.651400   2.494370  -3.901880 -21.253200  -1.798380   1.981290  11.157500   0.503281   3.977280  22.325700   0.622357   2.330140  -2.767420   0.108145   3.853150  -5.583980   1.019330  -7.934710  -6.805220  -3.298380 -53.299600  12.889500 -56.824800  35.166500  -6.578750 -65.131600  60.274700  30.107100 -28.801700  29.423000  51.439000 -71.767400 -67.042700  -0.009890   0.000856 -37.990400  -0.005972   0.005286 -73.634600   4.759010  -1.396410 -60.293600   0.000124  -0.000569 -45.220200  -0.000331   0.000645 -18.891400   1.611230  -4.691810 -18.957000   0.007212   0.001739 -12.625400  -0.004865   0.004920  -5.709460  -0.487174   4.833330  -5.730580  -0.000841  -0.000470  -3.816560   0.008432   0.000000  -6.727250  -2.816330  22.574800 -10.936400  -0.002331  -0.003879  -7.283620  -0.001336  -0.002652  10.746000  -3.307420  11.941000  42.786200   5.428670  52.160500 -40.458500 -12.914900  54.088700 -67.142300   6.626210  37.321100 -22.814100  55.993300  57.236200  80.745600  -0.003860   0.004310  47.116600   0.001206   0.005171  76.805600   3.530400   0.825737  62.861700   0.004186   0.001549  47.146300   0.008239  -0.001936  25.723000   1.577300   3.264810  25.158200   0.012177  -0.001481  16.755400  -0.002134  -0.001281  13.774400  -0.873139  -3.572950  13.802400  -0.002837  -0.010110   9.192380   0.003435  -0.008594  18.554100  -7.164560 -20.376900  29.781600  -0.014157   0.028237  19.834500  -0.002322   0.020949   6.195720  15.977700   1.369770   4.398970  18.077800   2.242420  -6.770290 -13.400800  -1.338170  -0.000000   0.000000   0.000000   9.127640  23.493800  -6.989390   0.389855   2.783020  -4.139660  -3.762970  -7.007660   0.552390   0.000000   0.000000   0.000000
